<svg xmlns="http://www.w3.org/2000/svg" width="960" height="540" viewBox="0 0 960 540">
  <!-- Base -->
  <rect width="960" height="540" fill="#11151d"/>
  <!-- Floor -->
  <rect x="0" y="420" width="960" height="120" fill="#0b0f15"/>

  <!-- Brick walls -->
  <g fill="#1b2430">
    <rect x="60" y="120" width="160" height="220"/>
    <rect x="260" y="80" width="140" height="260"/>
    <rect x="440" y="140" width="180" height="220"/>
    <rect x="660" y="100" width="140" height="260"/>
  </g>
  <!-- Brick lines -->
  <g stroke="#232f3d" stroke-width="3">
    <path d="M60 160 H220 M60 200 H220 M60 240 H220 M60 280 H220 M60 320 H220"/>
    <path d="M260 120 H400 M260 160 H400 M260 200 H400 M260 240 H400 M260 280 H400"/>
    <path d="M440 180 H620 M440 220 H620 M440 260 H620 M440 300 H620"/>
    <path d="M660 140 H800 M660 180 H800 M660 220 H800 M660 260 H800"/>
  </g>

  <!-- Arch doorway -->
  <path d="M820 420 L820 300 Q840 260 860 300 L860 420 Z" fill="#0b0f15" stroke="#232f3d" stroke-width="4"/>

  <!-- Chains -->
  <g stroke="#3c4b5d" stroke-width="4">
    <line x1="120" y1="120" x2="120" y2="170"/>
    <line x1="120" y1="170" x2="130" y2="190"/>
    <line x1="180" y1="120" x2="180" y2="170"/>
    <line x1="180" y1="170" x2="190" y2="190"/>
  </g>

  <!-- Torches -->
  <g>
    <rect x="300" y="200" width="10" height="30" fill="#4a3622"/>
    <circle cx="305" cy="195" r="10" fill="#ffb300"/>
    <rect x="720" y="180" width="10" height="30" fill="#4a3622"/>
    <circle cx="725" cy="175" r="10" fill="#ffb300"/>
  </g>

  <!-- Floor stones -->
  <g fill="#121820">
    <rect x="40" y="430" width="80" height="30" rx="6"/>
    <rect x="160" y="470" width="90" height="28" rx="6"/>
    <rect x="300" y="440" width="70" height="26" rx="6"/>
    <rect x="420" y="480" width="110" height="28" rx="6"/>
    <rect x="560" y="440" width="80" height="26" rx="6"/>
    <rect x="690" y="470" width="100" height="30" rx="6"/>
  </g>
</svg>

