<svg xmlns="http://www.w3.org/2000/svg" width="960" height="540" viewBox="0 0 960 540">
  <!-- Deep space background -->
  <rect width="960" height="540" fill="#060b16"/>
  <!-- Nebula gradient -->
  <defs>
    <radialGradient id="nebula" cx="0.4" cy="0.3" r="0.6">
      <stop offset="0%" stop-color="#1b2b4d" stop-opacity="0.9"/>
      <stop offset="60%" stop-color="#0f1c33" stop-opacity="0.6"/>
      <stop offset="100%" stop-color="#060b16" stop-opacity="0"/>
    </radialGradient>
  </defs>
  <circle cx="420" cy="200" r="280" fill="url(#nebula)"/>

  <!-- Stars field -->
  <g fill="#ffd54f">
    <circle cx="80" cy="80" r="2"/>
    <circle cx="140" cy="160" r="1.5"/>
    <circle cx="220" cy="60" r="1.2"/>
    <circle cx="300" cy="120" r="1.7"/>
    <circle cx="520" cy="80" r="1.3"/>
    <circle cx="620" cy="160" r="1.5"/>
    <circle cx="700" cy="60" r="2"/>
    <circle cx="820" cy="120" r="1.6"/>
    <circle cx="900" cy="80" r="1.4"/>
    <circle cx="240" cy="220" r="1.3"/>
    <circle cx="360" cy="240" r="1.2"/>
    <circle cx="540" cy="220" r="1.3"/>
    <circle cx="740" cy="220" r="1.4"/>
  </g>

  <!-- Planet with rings -->
  <g>
    <circle cx="780" cy="240" r="44" fill="#9ec9ff" stroke="#1e3a5f" stroke-width="6"/>
    <ellipse cx="780" cy="246" rx="80" ry="18" fill="none" stroke="#6fa8dc" stroke-width="5"/>
    <ellipse cx="780" cy="246" rx="64" ry="12" fill="none" stroke="#b3d1ff" stroke-width="3"/>
  </g>

  <!-- Shooting stars -->
  <g stroke="#ffd54f" stroke-width="2">
    <line x1="120" y1="60" x2="170" y2="80"/>
    <line x1="460" y1="130" x2="510" y2="150"/>
  </g>

  <!-- Foreground shadow -->
  <rect x="0" y="420" width="960" height="120" fill="#050b15"/>
</svg>

